<svg xmlns="http://www.w3.org/2000/svg" xmlns:xlink="http://www.w3.org/1999/xlink" width="500" zoomAndPan="magnify" viewBox="0 0 375 374.999991" height="500" preserveAspectRatio="xMidYMid meet" version="1.0"><defs><clipPath id="602c5c206f"><path d="M 51 80 L 342.75 80 L 342.75 280 L 51 280 Z M 51 80 " clip-rule="nonzero"/></clipPath></defs><path fill="#ecf284" d="M 180.566406 248.929688 C 175.769531 232.671875 138.925781 86.699219 138.925781 86.699219 C 138.925781 86.699219 137.105469 73.410156 122.660156 75.839844 C 108.152344 78.265625 57.46875 85.484375 57.46875 85.484375 C 57.46875 85.484375 52.125 85.605469 48.667969 90.519531 L 41.445312 99.316406 C 37.621094 104.414062 39.683594 112.242188 40.410156 117.398438 C 40.65625 119.035156 87.027344 283.878906 87.027344 283.878906 C 89.335938 290.792969 96.132812 294.070312 101.351562 292.675781 L 171.519531 273.625 C 174.675781 271.5 176.800781 269.742188 179.53125 267.375 C 179.53125 267.4375 185.359375 265.191406 180.566406 248.929688 Z M 180.566406 248.929688 " fill-opacity="1" fill-rule="nonzero"/><g clip-path="url(#602c5c206f)"><path fill="#10aeb2" d="M 74.886719 87.304688 L 76.285156 93.007812 C 76.648438 94.585938 78.226562 95.617188 79.867188 95.3125 L 108.210938 90.21875 C 110.03125 89.914062 111.1875 88.03125 110.640625 86.273438 L 109.304688 81.90625 C 109.304688 81.90625 113.554688 81.90625 120.167969 80.691406 C 126.785156 79.476562 129.820312 89.125 129.820312 89.125 C 129.820312 89.125 171.460938 239.890625 173.886719 250.144531 C 176.316406 260.398438 172.675781 263.429688 169.640625 264.039062 C 166.605469 264.644531 117.742188 276.71875 108.089844 279.144531 C 98.441406 281.570312 95.40625 269.5 95.40625 269.5 C 95.40625 269.5 53.160156 113.816406 51.945312 101.746094 C 50.730469 89.671875 53.160156 91.492188 56.738281 90.277344 Z M 298.441406 139.359375 L 296.015625 180.375 L 341.839844 185.167969 L 342.628906 141.726562 Z M 298.441406 139.359375 " fill-opacity="1" fill-rule="nonzero"/></g><path fill="#ebbba3" d="M 172.917969 140.816406 C 173.039062 145.125 172.855469 149.25 169.03125 151.859375 C 164.359375 155.011719 157.5 153.679688 152.15625 154.101562 C 145.238281 154.648438 138.621094 156.347656 131.703125 156.347656 C 124.78125 156.347656 111.308594 161.261719 110.15625 161.503906 C 106.210938 162.355469 102.75 165.023438 101.171875 168.726562 C 100.140625 171.210938 99.289062 173.578125 96.679688 174.914062 C 93.460938 176.550781 89.636719 176.246094 86.179688 176.1875 C 83.203125 176.125 80.535156 178.3125 77.558594 176.792969 C 73.1875 174.488281 72.519531 166.601562 75.191406 162.898438 C 77.253906 159.988281 80.898438 158.410156 84.054688 156.953125 C 86.480469 155.800781 96.679688 151.675781 99.105469 150.644531 C 101.230469 149.734375 115.980469 145.003906 121.019531 143.0625 C 128.851562 140.027344 137.164062 138.691406 145.175781 136.328125 C 151.492188 134.445312 158.167969 133.230469 164.785156 133.171875 C 169.519531 133.171875 172.734375 136.082031 172.917969 140.816406 Z M 168.425781 220.050781 C 163.207031 218.960938 158.46875 216.109375 153.3125 214.894531 C 150.761719 214.289062 148.210938 214.46875 145.664062 213.863281 C 142.203125 213.015625 139.410156 211.984375 136.4375 210.042969 C 134.617188 208.886719 131.824219 205.128906 129.394531 206.644531 C 128.425781 207.25 128.242188 208.28125 127.757812 209.191406 C 126.785156 211.011719 125.269531 212.285156 124.296875 214.105469 C 123.324219 215.988281 121.808594 217.140625 120.714844 218.960938 C 119.257812 221.386719 117.679688 223.8125 116.222656 226.242188 C 115.800781 226.90625 115.433594 227.9375 114.828125 228.484375 C 112.886719 230.304688 111.609375 229.214844 109.609375 228.910156 C 107.421875 228.546875 105.054688 228.242188 102.808594 228 C 100.019531 227.757812 97.164062 227.574219 94.433594 227.574219 C 92.492188 227.574219 89.152344 227.695312 87.089844 228.304688 C 87.453125 229.636719 92.003906 246.445312 92.1875 247.355469 C 92.1875 247.292969 92.125 247.109375 92.066406 246.867188 C 93.039062 247.414062 96.195312 250.144531 96.984375 250.507812 C 98.5625 251.296875 100.382812 251.480469 102.082031 251.902344 C 106.632812 253.058594 111.066406 253.84375 115.679688 254.816406 C 119.378906 255.605469 122.902344 255.785156 126.664062 256.03125 C 129.457031 256.210938 132.855469 256.636719 135.40625 255.179688 C 138.015625 253.664062 140.140625 250.507812 142.265625 248.386719 C 145.300781 245.289062 147.847656 241.773438 150.945312 238.800781 C 152.21875 237.585938 153.675781 236.613281 155.011719 235.402344 C 156.589844 233.886719 157.742188 232.003906 159.199219 230.425781 C 161.871094 227.574219 164.539062 224.664062 167.757812 222.539062 C 167.878906 222.539062 167.941406 222.601562 168.0625 222.601562 C 169.640625 222.84375 170.0625 220.414062 168.425781 220.050781 Z M 279.078125 148.519531 C 276.347656 147.066406 275.4375 147.488281 272.585938 147.613281 C 270.761719 147.734375 267.484375 148.644531 265.664062 148.765625 C 263.296875 148.886719 232.28125 155.4375 229.730469 155.4375 C 227.179688 155.4375 224.570312 153.980469 222.144531 153.191406 L 205.875 144.273438 C 206.179688 143.605469 205.753906 142.574219 204.90625 142.453125 C 202.902344 142.210938 201.203125 140.453125 199.503906 142.453125 C 198.835938 143.242188 198.773438 144.03125 198.957031 145.0625 C 199.261719 146.640625 199.625 148.398438 200.050781 149.976562 C 200.839844 153.4375 202.050781 157.683594 201.929688 161.261719 C 201.871094 163.324219 201.019531 166.296875 203.085938 167.753906 C 203.8125 168.238281 204.539062 168.238281 205.390625 168.300781 C 207.332031 168.359375 208.972656 168.542969 210.855469 169.027344 C 214.859375 170 218.683594 171.089844 222.8125 171.757812 C 226.148438 172.304688 230.582031 172.851562 233.917969 171.941406 C 235.617188 171.515625 257.410156 163.203125 258.683594 162.71875 C 260.203125 162.171875 260.808594 161.566406 262.628906 162.234375 C 263.84375 162.71875 264.632812 163.992188 265.726562 164.78125 C 270.277344 167.875 277.015625 163.871094 280.355469 160.59375 C 283.570312 157.320312 283.386719 150.828125 279.078125 148.519531 Z M 259.957031 250.449219 C 257.167969 247.597656 254.679688 244.441406 252.128906 241.347656 C 247.453125 235.644531 242.78125 230.003906 237.804688 224.542969 C 233.007812 219.261719 227.425781 214.957031 222.203125 210.101562 C 219.535156 207.613281 216.742188 205.25 213.765625 203.0625 C 212.613281 202.214844 211.21875 201.367188 209.820312 200.457031 C 208.425781 199.96875 207.089844 199.363281 205.695312 198.757812 C 205.511719 198.816406 205.390625 198.878906 205.207031 198.9375 C 205.027344 199 204.90625 199.121094 204.722656 199.179688 C 204.785156 199.242188 204.785156 199.242188 204.84375 199.300781 C 199.746094 203.0625 194.949219 207.191406 189.851562 210.953125 C 187.058594 213.074219 184.328125 215.441406 181.839844 217.929688 C 181.777344 217.929688 181.777344 217.867188 181.71875 217.867188 C 180.625 217.261719 179.59375 218.898438 180.6875 219.507812 C 186.390625 222.722656 192.160156 225.632812 197.136719 229.941406 C 202.234375 234.308594 208.363281 237.402344 213.28125 241.953125 C 215.589844 244.078125 217.652344 246.140625 220.203125 248.019531 C 222.75 249.839844 225.238281 251.722656 227.726562 253.542969 C 233.128906 257.546875 238.652344 261.1875 243.386719 265.980469 C 247.941406 270.53125 253.039062 274.414062 257.894531 278.71875 C 260.992188 281.449219 263.902344 282.300781 267 279.085938 C 269.914062 276.113281 271.671875 270.347656 271.308594 266.222656 C 271.128906 263.308594 260.992188 251.480469 259.957031 250.449219 Z M 187.546875 146.882812 C 190.398438 147.246094 192.886719 145.0625 193.554688 142.394531 C 194.769531 137.601562 191.371094 133.230469 191.914062 128.378906 C 194.464844 127.953125 196.589844 127.953125 198.289062 125.40625 C 199.929688 122.859375 201.261719 118.914062 200.839844 115.878906 C 200.414062 112.847656 198.289062 109.511719 196.46875 107.023438 C 194.828125 104.777344 192.765625 103.988281 190.214844 103.199219 C 187.363281 102.289062 185.847656 102.289062 183.417969 104.230469 C 181.292969 105.929688 180.261719 107.691406 179.59375 110.359375 C 178.804688 113.695312 179.109375 118.976562 178.742188 122.433594 C 178.320312 126.679688 174.980469 131.777344 175.34375 132.199219 C 175.527344 132.445312 175.710938 132.746094 175.890625 132.988281 C 175.953125 133.050781 175.953125 133.109375 176.011719 133.171875 C 176.074219 133.230469 176.132812 133.292969 176.195312 133.414062 C 176.253906 133.535156 176.375 133.597656 176.4375 133.65625 C 179.777344 137.902344 181.71875 146.15625 187.546875 146.882812 Z M 187.546875 146.882812 " fill-opacity="1" fill-rule="nonzero"/><path fill="#14110a" d="M 153.675781 221.023438 C 153.675781 221.023438 153.613281 221.023438 153.613281 221.023438 C 152.824219 220.78125 152.035156 220.234375 151.246094 219.871094 C 150.457031 219.507812 149.667969 219.203125 148.878906 218.960938 C 147.363281 218.414062 145.785156 217.867188 144.265625 217.382812 C 141.292969 216.410156 138.441406 215.320312 135.585938 213.984375 C 134.25 213.316406 132.917969 212.773438 131.824219 211.738281 C 131.460938 211.375 131.035156 211.195312 130.550781 210.953125 C 129.882812 210.585938 129.394531 210.042969 128.789062 209.675781 C 128.484375 209.496094 128.304688 209.375 128.121094 209.433594 C 128.0625 209.375 127.9375 209.375 127.878906 209.433594 C 127.878906 209.433594 127.816406 209.496094 127.816406 209.496094 C 127.757812 209.554688 127.757812 209.554688 127.757812 209.617188 C 127.695312 209.617188 127.636719 209.675781 127.636719 209.675781 C 127.148438 210.285156 125.027344 212.164062 125.148438 213.074219 C 125.207031 213.679688 126.117188 213.863281 126.605469 214.105469 C 129.214844 215.378906 132.007812 216.230469 134.859375 216.957031 C 136.253906 217.320312 137.652344 217.988281 139.046875 218.414062 C 140.503906 218.839844 141.960938 219.382812 143.476562 219.75 C 145.175781 220.113281 146.9375 220.292969 148.699219 220.539062 C 149.851562 220.71875 151.246094 220.902344 152.460938 221.265625 C 152.824219 221.449219 153.191406 221.570312 153.554688 221.691406 C 153.796875 221.75 153.980469 221.203125 153.675781 221.023438 Z M 205.574219 207.675781 C 205.085938 208.707031 204.480469 209.738281 203.875 210.769531 C 202.960938 213.195312 200.839844 215.199219 199.199219 217.078125 C 196.710938 219.871094 194.160156 222.601562 191.855469 225.511719 C 191.792969 225.574219 191.671875 225.632812 191.550781 225.574219 C 191.492188 225.574219 191.371094 225.574219 191.246094 225.511719 C 190.398438 224.90625 189.304688 224.601562 188.394531 224.054688 C 188.394531 224.054688 188.335938 224.054688 188.335938 224.054688 C 188.273438 224.054688 188.214844 223.996094 188.152344 223.996094 C 187.96875 223.933594 187.910156 223.753906 187.910156 223.570312 C 187.910156 223.390625 188.03125 223.207031 188.152344 223.085938 C 188.152344 223.085938 188.152344 223.023438 188.214844 223.023438 C 188.214844 223.023438 188.214844 222.964844 188.273438 222.964844 C 188.273438 222.964844 188.335938 222.902344 188.335938 222.902344 C 188.335938 222.902344 188.394531 222.902344 188.394531 222.84375 C 190.09375 221.507812 191.734375 219.992188 193.433594 218.597656 C 195.011719 217.261719 196.285156 215.621094 197.863281 214.289062 C 199.199219 212.773438 200.59375 211.4375 202.171875 210.222656 C 202.234375 210.164062 202.296875 210.164062 202.355469 210.164062 C 202.355469 210.164062 202.355469 210.101562 202.417969 210.101562 C 203.328125 209.132812 204.175781 208.101562 205.085938 207.128906 C 205.269531 206.824219 205.753906 207.25 205.574219 207.675781 Z M 211.097656 155.316406 C 210.246094 158.472656 210.066406 161.625 208.609375 164.597656 C 208.304688 165.207031 208 165.875 207.636719 166.480469 C 207.394531 166.90625 207.089844 167.753906 206.726562 168.058594 C 206.117188 168.542969 205.148438 168.300781 204.480469 168.179688 C 204.480469 168.179688 204.417969 168.179688 204.417969 168.179688 C 204.238281 168.238281 203.996094 168.179688 203.996094 167.9375 C 203.875 167.269531 204.480469 166.539062 204.785156 165.996094 C 205.453125 164.964844 205.996094 163.933594 206.726562 162.960938 C 208.425781 160.535156 209.335938 157.804688 210.550781 155.132812 C 210.671875 154.832031 211.21875 154.953125 211.097656 155.316406 Z M 150.578125 145.367188 C 150.214844 143.910156 149.789062 142.394531 149.488281 140.9375 C 149.488281 140.875 149.488281 140.875 149.488281 140.816406 C 149.425781 140.453125 149.367188 140.089844 149.304688 139.664062 C 149.183594 138.875 149.0625 137.902344 149.0625 137.117188 C 149.0625 136.691406 149.246094 136.207031 149 135.839844 C 148.636719 135.234375 147.847656 135.476562 147.300781 135.71875 C 147.121094 135.78125 147.058594 136.023438 147.121094 136.144531 C 146.878906 136.265625 146.878906 136.691406 146.9375 136.992188 C 147.242188 138.632812 147.847656 140.269531 148.332031 141.847656 C 148.878906 143.425781 149.304688 145.125 150.035156 146.578125 C 150.035156 146.640625 150.09375 146.640625 150.09375 146.640625 C 150.214844 146.945312 150.398438 147.308594 150.519531 147.613281 C 150.703125 148.398438 150.824219 149.25 151.246094 149.976562 C 151.367188 150.21875 151.792969 150.097656 151.792969 149.796875 C 151.792969 148.277344 151.003906 146.761719 150.578125 145.367188 Z M 150.578125 145.367188 " fill-opacity="1" fill-rule="nonzero"/><path fill="#ecf284" d="M 210.429688 197.96875 C 208 196.148438 205.148438 195.84375 201.929688 194.144531 C 199.746094 192.992188 195.132812 191.234375 192.644531 190.082031 C 187.300781 187.714844 184.875 189.59375 179.351562 189.960938 C 176.742188 190.140625 174.191406 190.625 171.519531 190.6875 C 167.941406 190.75 165.085938 189.839844 161.6875 188.988281 C 158.53125 188.261719 155.617188 187.410156 152.582031 186.320312 C 151.1875 185.832031 149.789062 185.347656 148.457031 184.742188 C 148.089844 184.558594 147.542969 184.4375 147 184.316406 C 146.753906 183.769531 146.148438 183.347656 145.359375 183.46875 C 144.996094 183.527344 144.570312 183.527344 144.207031 183.589844 C 143.175781 183.710938 142.144531 185.105469 141.414062 186.199219 C 139.652344 188.5625 138.5 190.75 135.890625 194.144531 C 134.25 196.269531 131.824219 199.789062 130.246094 201.910156 C 128.972656 203.671875 128.183594 205.308594 126.238281 207.3125 C 125.875 207.675781 127.515625 210.042969 127.816406 210.464844 C 128.910156 212.105469 130.367188 212.894531 132.066406 213.742188 C 134.191406 214.714844 136.132812 216.046875 138.320312 216.957031 C 143.054688 219.082031 147.847656 220.960938 152.582031 223.085938 C 156.832031 224.964844 160.65625 226.179688 165.269531 226.847656 C 166.664062 227.027344 167.878906 227.453125 169.214844 226.726562 C 170.550781 225.996094 172.128906 223.933594 173.097656 222.84375 C 173.402344 222.480469 173.886719 221.386719 174.191406 221.144531 C 175.585938 220.234375 176.375 221.691406 177.164062 222.660156 C 178.199219 223.875 178.988281 225.453125 180.199219 226.484375 C 182.871094 228.667969 184.875 226.363281 186.878906 224.542969 C 191.003906 220.78125 195.253906 217.320312 199.441406 213.679688 C 201.382812 211.984375 203.023438 210.101562 204.722656 208.160156 C 205.753906 207.007812 207.878906 203.972656 208.609375 202.699219 C 209.820312 200.636719 211.277344 198.636719 210.429688 197.96875 Z M 255.40625 178.734375 C 259.414062 178.734375 289.214844 178.734375 289.214844 178.734375 L 294.070312 222.964844 L 252.25 226.785156 L 246.789062 221.449219 L 250.914062 181.648438 Z M 309.429688 247.65625 C 306.453125 252.390625 303.539062 257.183594 300.628906 261.914062 C 298.078125 266.039062 295.042969 269.800781 292.433594 273.925781 C 289.519531 278.539062 286.542969 283.269531 283.328125 287.761719 C 281.628906 290.125 279.746094 292.371094 278.046875 294.675781 C 276.773438 296.4375 275.742188 298.558594 274.101562 300.078125 C 272.644531 301.410156 270.582031 299.167969 272.039062 297.832031 C 273.796875 296.132812 274.828125 293.765625 276.40625 291.886719 C 278.230469 289.703125 279.929688 287.394531 281.507812 285.089844 C 284.542969 280.539062 287.578125 276.050781 290.550781 271.5 C 296.074219 263.066406 301.597656 254.695312 307 246.140625 C 307.851562 244.683594 310.277344 246.199219 309.429688 247.65625 Z M 309.429688 247.65625 " fill-opacity="1" fill-rule="nonzero"/><path fill="#ff4162" d="M 308.273438 245.898438 C 302.207031 257.363281 274.039062 297.769531 272.339844 298.742188 C 268.941406 294.796875 260.503906 280.480469 260.503906 280.480469 L 270.824219 264.765625 C 276.285156 263.976562 282.054688 261.734375 287.699219 256.453125 C 293.402344 251.238281 302.449219 241.226562 308.273438 245.898438 Z M 210.246094 144.273438 C 205.695312 140.148438 200.292969 138.085938 194.707031 135.539062 C 193.433594 134.929688 191.792969 136.265625 192.644531 137.660156 C 195.011719 141.300781 190.335938 145.730469 186.574219 145.0625 C 183.78125 144.578125 181.597656 141.121094 180.382812 138.933594 C 179.53125 137.359375 178.441406 135.960938 177.410156 134.445312 C 176.679688 133.355469 176.074219 132.019531 174.738281 131.535156 C 173.21875 130.925781 170.972656 131.472656 169.335938 131.472656 C 166.785156 131.414062 164.296875 130.988281 161.75 131.109375 C 157.5 131.289062 152.765625 132.324219 148.820312 133.898438 C 147.847656 134.265625 147.847656 135.539062 148.394531 136.265625 C 149 140.089844 149.667969 143.667969 150.578125 147.367188 C 151.125 149.492188 151.855469 151.496094 152.460938 153.617188 C 152.703125 154.46875 152.703125 155.195312 152.644531 155.863281 C 154.101562 155.800781 155.617188 155.679688 157.074219 155.378906 C 158.347656 155.132812 159.5625 156.226562 159.136719 157.5625 C 157.136719 164.417969 151.429688 170.179688 147.242188 175.761719 C 145.238281 178.433594 143.175781 181.164062 141.050781 183.769531 C 142.933594 184.800781 144.8125 185.832031 146.753906 186.441406 C 149.667969 187.351562 152.703125 187.773438 155.617188 188.5625 C 162.597656 190.445312 169.335938 191.476562 176.558594 191.78125 C 181.839844 192.023438 186.878906 191.113281 191.976562 190.382812 C 192.824219 186.441406 194.527344 182.496094 195.558594 178.796875 C 196.46875 175.519531 197.378906 172.242188 197.925781 168.90625 C 199.015625 168.726562 201.929688 168.847656 202.78125 169.574219 C 203.386719 168.847656 206.664062 164.113281 207.03125 163.566406 C 208.488281 161.566406 209.457031 159.5625 210.246094 157.257812 C 211.035156 154.953125 212.796875 150.886719 212.613281 148.398438 C 212.796875 146.398438 211.519531 145.488281 210.246094 144.273438 Z M 293.402344 232.1875 L 336.621094 210.890625 L 306.878906 169.878906 C 302.023438 171.453125 273.917969 184.378906 273.917969 184.378906 L 271.492188 187.835938 L 284.722656 231.09375 Z M 93.039062 250.449219 L 107.242188 192.933594 L 76.222656 187.53125 Z M 93.039062 250.449219 " fill-opacity="1" fill-rule="nonzero"/><path fill="#14110a" d="M 177.042969 211.679688 C 176.558594 215.136719 175.164062 218.109375 173.339844 221.082031 C 172.066406 223.144531 171.640625 225.695312 170.308594 227.574219 C 169.761719 228.304688 168.546875 227.636719 169.03125 226.90625 C 169.699219 225.9375 169.761719 224.84375 170.183594 223.753906 C 170.609375 222.601562 171.339844 221.507812 172.007812 220.476562 C 173.707031 217.625 175.101562 214.773438 175.585938 211.4375 C 175.769531 210.464844 177.164062 210.769531 177.042969 211.679688 Z M 171.035156 149.492188 C 171.398438 148.824219 171.703125 148.097656 171.886719 147.367188 C 172.066406 146.640625 171.945312 145.367188 172.308594 144.761719 C 172.734375 144.152344 171.761719 143.484375 171.339844 144.09375 C 170.730469 145.125 170.972656 146.335938 170.671875 147.429688 C 170.183594 149.128906 169.214844 150.707031 167.878906 151.859375 C 165.511719 153.859375 162.539062 154.710938 159.5625 154.953125 C 159.078125 154.953125 159.015625 155.742188 159.503906 155.800781 C 162.476562 156.042969 165.753906 154.890625 168.121094 153.070312 C 169.457031 152.101562 170.367188 150.886719 171.035156 149.492188 Z M 198.53125 110.90625 C 204.054688 105.871094 200.351562 99.804688 196.226562 95.375 C 191.671875 90.460938 185.238281 87.972656 178.683594 90.640625 C 175.042969 92.097656 171.339844 94.34375 168.789062 97.375 C 166.179688 85.058594 149.425781 86.699219 141.839844 94.828125 C 137.773438 99.195312 136.195312 105.566406 138.136719 111.269531 C 139.351562 114.847656 141.414062 117.15625 144.511719 119.277344 C 145.964844 120.308594 147.605469 121.21875 149.246094 121.949219 C 150.335938 122.433594 152.824219 122.796875 154.402344 123.34375 C 153.433594 124.011719 152.460938 124.617188 151.976562 126.074219 C 151.367188 127.953125 152.402344 129.59375 153.980469 130.683594 C 158.289062 133.65625 164.175781 132.625 168.425781 130.257812 C 171.097656 128.804688 174.007812 127.226562 176.253906 125.222656 C 177.164062 124.433594 178.015625 123.523438 178.742188 122.554688 C 178.988281 122.191406 179.714844 120.917969 179.957031 120.796875 C 180.6875 120.429688 181.292969 121.097656 182.386719 120.429688 C 183.234375 119.945312 183.902344 119.15625 184.449219 118.308594 C 185.96875 116.003906 185.847656 113.9375 185.90625 111.632812 C 186.511719 111.996094 187.058594 112.300781 187.789062 112.421875 C 189.003906 112.664062 190.457031 112.847656 191.671875 112.96875 C 194.28125 113.152344 196.710938 112.605469 198.53125 110.90625 Z M 151.613281 188.019531 C 151.492188 190.566406 149.121094 193.417969 147.242188 194.933594 C 145.421875 196.328125 139.714844 199.425781 137.53125 197.785156 C 136.863281 197.300781 136.132812 198.332031 136.800781 198.816406 C 138.136719 199.789062 139.289062 199.789062 140.867188 199.300781 C 142.933594 198.636719 145.238281 197.90625 147 196.753906 C 149.609375 195.054688 153.070312 191.414062 152.886719 188.078125 C 152.765625 187.230469 151.613281 187.230469 151.613281 188.019531 Z M 196.773438 192.265625 C 195.191406 192.507812 194.101562 193.113281 192.523438 192.386719 C 191.371094 191.902344 190.335938 191.292969 189.125 190.992188 C 188.394531 190.871094 188.089844 192.023438 188.820312 192.144531 C 190.398438 192.445312 191.734375 193.539062 193.3125 193.84375 C 194.585938 194.085938 195.679688 193.539062 196.894531 193.296875 C 197.621094 193.234375 197.5 192.144531 196.773438 192.265625 Z M 88.242188 199.847656 C 88.121094 200.636719 89.457031 200.699219 89.515625 199.910156 C 89.820312 197.421875 91.214844 194.933594 91.945312 192.566406 C 92.734375 190.019531 93.402344 187.410156 93.582031 184.742188 C 93.886719 180.738281 93.460938 175.945312 91.09375 172.609375 C 90.671875 172 89.636719 172.609375 90.0625 173.214844 C 92.792969 177.097656 92.855469 182.859375 92.003906 187.351562 C 91.214844 191.597656 88.847656 195.601562 88.242188 199.847656 Z M 73.796875 173.457031 C 74.097656 172.972656 74.523438 172.546875 74.886719 172.183594 C 75.375 171.757812 76.101562 171.089844 76.769531 171.03125 C 77.378906 170.910156 77.195312 169.878906 76.589844 169.9375 C 76.527344 169.9375 76.464844 169.9375 76.40625 169.9375 C 76.34375 169.9375 76.34375 169.9375 76.285156 170 C 75.617188 170.179688 74.886719 170.726562 74.34375 171.152344 C 73.796875 171.636719 73.25 172.183594 72.886719 172.730469 C 72.519531 173.335938 73.371094 174.0625 73.796875 173.457031 Z M 112.523438 229.152344 C 110.335938 231.578125 108.941406 234.128906 107.789062 237.039062 C 107.542969 237.402344 107.421875 237.769531 107.363281 238.253906 C 107.363281 238.3125 107.300781 238.375 107.300781 238.433594 C 107.179688 239.40625 108.578125 239.589844 108.878906 238.738281 C 109.546875 236.796875 110.214844 234.855469 111.429688 233.15625 C 112.277344 232.003906 113.492188 231.035156 113.613281 229.578125 C 113.675781 229.03125 112.886719 228.789062 112.523438 229.152344 Z M 95.949219 276.898438 C 91.882812 267.980469 67.300781 178.128906 67.058594 177.21875 C 63.113281 163.507812 57.226562 142.757812 57.105469 141.542969 C 57.105469 140.9375 56.011719 136.449219 53.582031 126.316406 C 51.640625 118.1875 49.394531 108.964844 49.214844 107.628906 C 49.152344 107.023438 48.96875 106.355469 48.789062 105.566406 C 48.121094 102.65625 47.210938 98.648438 49.515625 93.492188 L 48.242188 92.886719 C 45.691406 98.46875 46.722656 102.957031 47.390625 105.871094 C 47.574219 106.597656 47.695312 107.265625 47.757812 107.8125 C 47.9375 109.265625 50.0625 118.125 52.125 126.679688 C 53.765625 133.355469 55.585938 140.9375 55.648438 141.605469 C 55.648438 142.816406 63.296875 169.511719 65.664062 177.703125 C 66.695312 181.40625 90.546875 268.589844 94.675781 277.566406 C 98.257812 285.453125 101.777344 287.519531 107.542969 287.519531 C 108.453125 287.519531 109.488281 287.457031 110.519531 287.394531 L 110.398438 286 C 103.597656 286.425781 99.957031 285.757812 95.949219 276.898438 Z M 273.554688 152.222656 C 277.925781 148.703125 283.449219 148.398438 288.914062 148.097656 C 293.949219 147.792969 299.230469 148.339844 304.207031 149.066406 C 304.996094 149.1875 305.238281 147.976562 304.449219 147.855469 C 298.925781 147.003906 293.28125 146.457031 287.699219 146.945312 C 282.296875 147.367188 277.199219 147.734375 272.828125 151.25 C 272.28125 151.738281 272.949219 152.707031 273.554688 152.222656 Z M 290.734375 226.847656 C 289.945312 224.964844 289.15625 223.085938 288.367188 221.203125 C 286.789062 217.261719 285.027344 213.316406 283.691406 209.253906 C 282.296875 205.066406 280.839844 200.941406 279.261719 196.875 C 278.351562 194.507812 277.441406 192.203125 276.53125 189.839844 C 276.105469 188.808594 275.558594 187.773438 275.132812 186.742188 C 274.890625 186.199219 274.769531 185.710938 274.34375 185.289062 C 274.285156 185.226562 274.222656 185.289062 274.285156 185.347656 C 274.648438 185.957031 274.648438 186.804688 274.890625 187.410156 C 275.253906 188.382812 275.742188 189.351562 276.105469 190.324219 C 276.953125 192.566406 277.863281 194.8125 278.652344 197.058594 C 280.355469 201.609375 281.75 206.28125 283.449219 210.828125 C 286.058594 217.867188 288.914062 224.90625 292.007812 231.820312 C 292.007812 232.003906 292.070312 232.1875 292.25 232.1875 C 292.25 232.1875 292.3125 232.1875 292.3125 232.1875 C 292.554688 232.246094 292.734375 231.945312 292.613281 231.761719 C 291.945312 230.183594 291.402344 228.484375 290.734375 226.847656 Z M 285.511719 258.152344 C 285.511719 257.183594 283.996094 257.0625 283.996094 258.03125 C 283.996094 258.882812 283.996094 259.730469 284.054688 260.519531 C 284.175781 261.429688 284.542969 262.277344 284.542969 263.1875 C 284.542969 264.039062 285.9375 264.039062 286 263.1875 C 286.058594 262.398438 285.816406 261.671875 285.632812 260.945312 C 285.453125 260.035156 285.511719 259.0625 285.511719 258.152344 Z M 199.140625 119.582031 C 198.773438 120.128906 198.957031 121.097656 198.714844 121.765625 C 198.53125 122.191406 198.226562 122.492188 197.925781 122.796875 C 197.015625 123.707031 196.164062 124.3125 194.828125 124.191406 C 193.433594 124.070312 192.765625 123.28125 192.160156 122.070312 C 191.550781 120.796875 190.945312 119.582031 191.1875 118.125 C 191.246094 117.945312 191.371094 117.761719 191.613281 117.761719 C 193.980469 117.699219 196.347656 118.914062 198.714844 119.097656 C 198.773438 119.097656 198.894531 119.15625 198.957031 119.15625 C 199.078125 119.097656 199.320312 119.339844 199.140625 119.582031 Z M 198.289062 119.761719 C 197.136719 119.703125 196.105469 119.398438 194.949219 119.15625 C 194.039062 118.976562 192.949219 118.671875 191.976562 118.609375 C 191.914062 120.492188 193.25 123.402344 195.253906 123.34375 C 196.285156 123.28125 197.683594 122.3125 198.046875 121.28125 C 198.226562 120.796875 198.226562 120.25 198.289062 119.761719 Z M 281.144531 262.886719 C 281.019531 261.976562 281.144531 260.882812 280.71875 260.035156 C 280.414062 259.425781 279.503906 259.851562 279.808594 260.457031 C 280.050781 261.003906 279.867188 261.671875 279.929688 262.21875 C 279.929688 262.824219 279.988281 263.429688 280.109375 264.039062 C 280.230469 264.765625 280.230469 265.617188 280.476562 266.34375 C 280.777344 267.070312 281.808594 266.769531 281.628906 266.039062 C 281.386719 265.007812 281.324219 263.917969 281.144531 262.886719 Z M 304.816406 169.210938 C 301.355469 169.027344 297.894531 169.027344 294.496094 168.847656 C 293.28125 167.148438 292.007812 165.570312 290.613281 163.992188 C 287.820312 160.898438 284.601562 157.742188 280.109375 157.863281 C 279.441406 157.863281 279.382812 158.957031 280.109375 158.957031 C 285.511719 158.835938 289.640625 164.175781 292.554688 168.117188 C 292.734375 168.359375 292.859375 168.601562 293.039062 168.785156 C 291.582031 168.726562 290.125 168.601562 288.609375 168.421875 C 286.484375 168.179688 284.175781 167.816406 281.933594 167.269531 C 280.898438 164.476562 279.019531 161.019531 275.984375 160.777344 C 275.253906 160.714844 275.195312 161.867188 275.921875 161.929688 C 278.167969 162.113281 279.625 164.355469 280.65625 166.90625 C 277.320312 165.875 274.34375 164.113281 272.765625 161.082031 C 272.339844 160.292969 271.066406 160.835938 271.492188 161.625 C 271.917969 162.414062 272.402344 163.082031 272.886719 163.6875 C 273.007812 167.269531 273.980469 170.058594 275.617188 173.273438 C 276.773438 175.640625 280.292969 180.738281 280.777344 181.285156 L 282.113281 180.675781 C 281.265625 179.585938 280.414062 178.554688 280.050781 177.886719 C 277.621094 173.640625 274.953125 170 274.40625 165.144531 C 276.285156 166.660156 278.59375 167.511719 281.144531 168.179688 C 281.6875 169.816406 282.054688 171.453125 282.296875 172.609375 C 283.023438 175.703125 285.753906 182.496094 285.9375 185.652344 C 285.9375 185.894531 286.058594 186.199219 286.363281 186.257812 C 286.421875 186.257812 286.910156 186.320312 287.210938 185.957031 C 287.699219 185.347656 284.785156 176.976562 284.601562 176.429688 C 283.875 174.0625 283.144531 171.210938 282.355469 168.601562 C 283.023438 168.785156 283.632812 168.90625 284.300781 169.089844 C 287.457031 169.878906 290.792969 170.300781 294.132812 170.542969 C 295.589844 172.667969 299.535156 178.3125 300.808594 180.554688 C 301.234375 181.285156 302.386719 180.617188 301.960938 179.886719 C 300.75 177.945312 296.863281 172.484375 295.589844 170.605469 C 298.746094 170.726562 301.839844 170.726562 304.9375 170.542969 C 305.726562 170.363281 305.542969 169.269531 304.816406 169.210938 Z M 254.980469 180.3125 C 255.285156 180.917969 255.101562 182.132812 255.042969 182.800781 C 254.980469 183.832031 254.921875 184.863281 254.921875 185.894531 C 254.921875 188.019531 254.859375 190.203125 254.738281 192.324219 C 254.558594 196.632812 254.433594 200.878906 254.011719 205.1875 C 253.828125 206.886719 253.707031 208.523438 253.585938 210.164062 C 253.464844 212.105469 253.585938 214.167969 253.402344 216.109375 C 253.222656 217.746094 253.039062 219.382812 252.976562 221.023438 C 252.917969 222.902344 252.1875 224.785156 252.25 226.664062 C 252.25 227.152344 252.976562 227.027344 252.976562 226.605469 C 252.976562 224.90625 253.585938 223.207031 253.707031 221.507812 C 253.828125 219.75 254.011719 218.050781 254.132812 216.289062 C 254.253906 214.347656 254.011719 212.40625 254.253906 210.527344 C 254.433594 208.585938 254.558594 206.582031 254.738281 204.640625 C 255.101562 200.394531 255.347656 196.207031 255.46875 191.902344 C 255.527344 189.65625 255.527344 187.410156 255.589844 185.167969 C 255.648438 183.648438 256.257812 181.40625 255.527344 180.007812 C 255.347656 179.765625 254.859375 180.007812 254.980469 180.3125 Z M 276.347656 262.398438 C 276.347656 261.488281 274.890625 261.488281 274.890625 262.398438 C 274.890625 263.554688 274.953125 264.765625 275.132812 265.917969 C 275.316406 267.011719 275.253906 268.222656 275.679688 269.253906 C 275.863281 269.742188 276.589844 269.621094 276.773438 269.132812 C 277.136719 268.101562 276.832031 267.011719 276.652344 265.980469 C 276.46875 264.765625 276.347656 263.613281 276.347656 262.398438 Z M 200.535156 148.886719 C 199.867188 150.339844 200.351562 152.527344 200.292969 154.042969 C 200.171875 157.136719 199.929688 160.230469 199.261719 163.265625 C 199.199219 163.566406 199.5625 163.628906 199.746094 163.445312 C 200.898438 162.113281 200.898438 159.683594 201.019531 158.046875 C 201.140625 156.589844 201.261719 155.132812 201.324219 153.679688 C 201.382812 152.585938 200.960938 150.460938 201.445312 149.371094 C 201.6875 148.765625 200.777344 148.339844 200.535156 148.886719 Z M 269.730469 162.113281 C 267.363281 163.265625 266.027344 166.84375 265.421875 169.269531 C 264.9375 171.152344 264.753906 172.972656 264.632812 174.914062 C 264.449219 177.035156 265.238281 182.253906 264.691406 184.257812 C 264.390625 185.289062 265.421875 185.53125 265.90625 184.5 C 267.0625 182.070312 265.664062 176.492188 265.96875 173.761719 C 266.332031 170.421875 267.121094 165.144531 270.277344 163.265625 C 270.945312 162.960938 270.460938 161.808594 269.730469 162.113281 Z M 269.730469 162.113281 " fill-opacity="1" fill-rule="nonzero"/><path fill="#10aeb2" d="M 186.453125 110.722656 C 185.722656 109.996094 185.117188 109.085938 184.390625 108.359375 C 182.871094 106.839844 180.625 107.449219 178.804688 108.113281 C 176.316406 109.023438 174.191406 110.542969 172.066406 112.058594 C 169.699219 113.695312 165.574219 115.152344 163.570312 112.242188 C 163.328125 111.9375 163.8125 111.511719 163.996094 111.816406 C 165.996094 114.605469 169.941406 112.785156 172.128906 111.210938 C 173.886719 109.875 175.710938 108.722656 177.773438 107.8125 C 179.410156 107.082031 181.777344 106.292969 183.601562 106.839844 C 185.058594 107.324219 185.96875 109.085938 187 110.175781 C 187.242188 110.542969 186.757812 111.085938 186.453125 110.722656 Z M 161.871094 110.601562 C 162.476562 111.085938 162.660156 111.816406 163.386719 112.117188 C 163.75 112.242188 163.933594 111.632812 163.570312 111.511719 C 163.023438 111.269531 162.71875 110.421875 162.171875 110.054688 C 161.566406 109.632812 160.59375 109.328125 159.867188 109.265625 C 157.679688 108.964844 156.164062 110.480469 154.648438 111.816406 C 152.523438 113.757812 149.730469 115.152344 146.816406 114.484375 C 144.996094 114.058594 143.78125 112.96875 142.6875 111.453125 C 142.144531 110.664062 141.230469 109.144531 141.777344 108.113281 C 141.898438 107.8125 141.476562 107.570312 141.292969 107.871094 C 140.382812 109.632812 142.203125 111.996094 143.296875 113.210938 C 144.875 114.847656 147.421875 115.636719 149.609375 115.214844 C 152.21875 114.667969 153.980469 113.210938 155.921875 111.453125 C 157.5 110.117188 159.988281 109.085938 161.871094 110.601562 Z M 181.960938 116.246094 C 179.167969 114.425781 175.40625 116.488281 172.976562 118.1875 C 171.035156 119.582031 168.605469 121.21875 166.117188 121.21875 C 165.027344 121.21875 163.570312 120.855469 163.207031 119.703125 C 163.023438 119.035156 163.144531 116.910156 163.449219 116.425781 C 163.507812 116.367188 163.507812 116.304688 163.507812 116.246094 C 163.507812 116.125 163.507812 116.003906 163.328125 115.941406 C 163.265625 115.878906 163.207031 115.878906 163.144531 115.878906 C 162.476562 115.699219 162.171875 115.394531 161.382812 115.457031 C 160.65625 115.515625 159.988281 115.878906 159.320312 116.246094 C 156.769531 117.761719 154.523438 120.429688 151.367188 118.792969 C 151.066406 118.609375 150.699219 119.097656 151.066406 119.277344 C 152.945312 120.308594 154.464844 120.308594 156.226562 119.15625 C 157.378906 118.429688 158.410156 117.519531 159.5625 116.851562 C 160.414062 116.367188 161.203125 116.125 162.234375 116.304688 C 162.476562 116.367188 162.539062 116.425781 162.660156 116.488281 C 162.234375 117.578125 162.171875 119.460938 162.660156 120.371094 C 163.265625 121.644531 165.085938 122.007812 166.363281 121.949219 C 168.605469 121.828125 170.730469 120.613281 172.550781 119.398438 C 174.921875 117.820312 178.441406 115.214844 181.355469 116.851562 C 181.414062 116.910156 181.476562 116.972656 181.597656 116.972656 C 181.65625 116.972656 181.65625 116.972656 181.71875 116.972656 C 182.144531 116.910156 182.265625 116.425781 181.960938 116.246094 Z M 189.609375 101.621094 C 187.847656 99.863281 185.117188 98.953125 182.6875 98.710938 C 176.253906 98.042969 171.582031 104.777344 165.875 106.539062 C 165.207031 104.414062 164.785156 101.867188 162.539062 100.894531 C 160.535156 99.984375 158.046875 100.894531 156.347656 102.046875 C 153.613281 103.867188 150.09375 107.75 146.753906 104.898438 C 144.085938 102.59375 143.78125 97.738281 145.90625 95.070312 C 146.148438 94.765625 145.722656 94.34375 145.480469 94.644531 C 142.628906 98.105469 143.597656 105.382812 148.515625 106.539062 C 151.367188 107.203125 153.980469 104.71875 156.101562 103.199219 C 157.863281 101.925781 160.535156 100.53125 162.660156 101.867188 C 164.539062 103.019531 164.660156 105.382812 165.390625 107.265625 C 165.511719 107.628906 165.9375 107.449219 166.058594 107.203125 C 171.15625 105.808594 174.921875 101.257812 180.078125 99.925781 C 182.75 99.257812 186.027344 100.046875 188.273438 101.621094 C 189.546875 102.53125 190.277344 103.746094 190.824219 105.140625 C 191.308594 106.234375 192.035156 107.75 192.097656 108.902344 C 192.160156 109.390625 192.949219 109.328125 192.886719 108.78125 C 192.824219 107.628906 192.160156 106.476562 191.792969 105.382812 C 191.246094 103.929688 190.582031 102.59375 189.609375 101.621094 Z M 156.589844 95.675781 C 157.863281 95.980469 159.136719 95.859375 160.351562 95.496094 C 161.140625 95.253906 161.871094 94.949219 162.597656 94.644531 C 163.144531 94.402344 163.75 93.917969 164.296875 93.734375 C 164.539062 93.855469 164.90625 93.734375 164.84375 93.371094 C 164.84375 93.3125 164.84375 93.25 164.84375 93.25 C 164.84375 93.070312 164.601562 92.886719 164.417969 92.945312 C 163.082031 93.25 161.808594 94.28125 160.414062 94.707031 C 159.257812 95.070312 158.167969 95.191406 156.953125 95.011719 C 155.375 94.707031 153.25 93.433594 154.101562 91.371094 C 154.28125 90.945312 153.613281 90.582031 153.433594 91.066406 C 152.523438 93.371094 154.464844 95.253906 156.589844 95.675781 Z M 195.800781 101.5625 C 194.648438 99.621094 193.25 97.496094 191.371094 96.222656 C 189.183594 94.765625 186.695312 93.554688 184.085938 93.25 C 182.324219 93.007812 180.199219 93.007812 178.441406 93.371094 C 176.984375 93.675781 175.710938 94.34375 174.3125 94.707031 C 174.007812 94.765625 174.191406 95.253906 174.433594 95.191406 C 176.132812 94.765625 177.652344 93.980469 179.410156 93.796875 C 180.445312 93.675781 181.476562 93.734375 182.507812 93.734375 C 185.300781 93.734375 188.03125 94.765625 190.398438 96.222656 C 192.28125 97.4375 193.917969 99.378906 195.011719 101.257812 C 196.226562 103.382812 197.136719 105.628906 197.015625 108.113281 C 197.015625 108.480469 197.621094 108.480469 197.621094 108.113281 C 197.683594 105.75 196.953125 103.566406 195.800781 101.5625 Z M 170.609375 126.375 C 170.246094 126.800781 168.789062 127.042969 168.242188 127.164062 C 167.027344 127.46875 165.511719 127.589844 164.238281 127.589844 C 162.902344 127.652344 161.871094 127.40625 160.59375 126.984375 C 159.257812 126.496094 158.289062 126.074219 157.742188 124.617188 C 157.558594 124.132812 157.558594 123.402344 157.558594 122.917969 C 157.558594 122.554688 157.015625 122.613281 157.015625 122.980469 C 157.015625 124.191406 157.136719 125.464844 158.046875 126.375 C 158.957031 127.285156 160.535156 127.832031 161.808594 128.074219 C 163.570312 128.4375 165.511719 128.257812 167.273438 128.015625 C 168.304688 127.894531 170.429688 127.589844 171.15625 126.742188 C 171.398438 126.558594 170.851562 126.074219 170.609375 126.375 Z M 170.609375 126.375 " fill-opacity="1" fill-rule="nonzero"/></svg>