<svg xmlns="http://www.w3.org/2000/svg" xmlns:xlink="http://www.w3.org/1999/xlink" width="125" zoomAndPan="magnify" viewBox="0 0 93.75 93.749997" height="125" preserveAspectRatio="xMidYMid meet" version="1.0"><defs><g/></defs><g fill="#fee253" fill-opacity="1"><g transform="translate(2.023623, 47.673274)"><g><path d="M 1.191406 -4.371094 C 1.148438 -1.855469 0.308594 0.265625 2.074219 0.265625 C 3.3125 0.265625 3.664062 0 5.164062 0 C 7.417969 0 8.609375 0.265625 10.859375 0.265625 C 15.410156 0.265625 19.914062 -1.941406 19.914062 -6.179688 C 19.914062 -14.214844 8.125 -13.289062 8.125 -17.351562 C 8.125 -18.808594 9.007812 -19.78125 10.683594 -19.78125 C 14.128906 -19.78125 15.230469 -14.613281 17.261719 -14.613281 C 19.867188 -14.613281 18.632812 -17.21875 16.644531 -21.679688 C 16.425781 -22.207031 16.070312 -22.339844 15.628906 -22.339844 C 15.054688 -22.339844 14.261719 -22.074219 13.246094 -22.074219 C 11.921875 -22.074219 11.082031 -22.339844 9.359375 -22.339844 C 3.886719 -22.339844 1.105469 -19.515625 1.105469 -15.761719 C 1.105469 -7.59375 13.464844 -7.683594 13.511719 -4.238281 C 13.511719 -2.914062 12.496094 -2.515625 11.082031 -2.515625 C 4.988281 -2.515625 3.488281 -8.875 1.765625 -8.875 C 0.175781 -8.875 1.191406 -7.0625 1.191406 -4.371094 Z M 1.191406 -4.371094 "/></g></g></g><g fill="#fee253" fill-opacity="1"><g transform="translate(21.006857, 47.673274)"><g><path d="M 1.414062 -14.039062 C 3.664062 -14.039062 4.238281 -19.691406 6.179688 -19.691406 C 6.800781 -19.691406 7.152344 -19.382812 7.152344 -18.675781 L 7.152344 -5.695312 C 7.152344 -1.546875 5.652344 -2.121094 5.652344 -0.839844 C 5.652344 0.0429688 6.402344 0.265625 7.417969 0.265625 C 8.476562 0.265625 9.800781 0 10.683594 0 C 11.566406 0 12.890625 0.265625 13.996094 0.265625 C 14.96875 0.265625 15.761719 0.0429688 15.761719 -0.839844 C 15.761719 -2.121094 14.261719 -1.546875 14.261719 -5.695312 L 14.261719 -18.675781 C 14.261719 -19.382812 14.613281 -19.691406 15.230469 -19.691406 C 17.175781 -19.691406 17.75 -14.039062 20 -14.039062 C 21.28125 -14.039062 21.191406 -16.203125 21.191406 -18.5 L 21.191406 -20.308594 C 21.191406 -21.371094 20.664062 -22.339844 19.601562 -22.339844 C 17.21875 -22.339844 15.054688 -22.074219 10.816406 -22.074219 C 6.535156 -22.074219 4.28125 -22.339844 1.941406 -22.339844 C 0.882812 -22.339844 0.222656 -21.371094 0.222656 -20.308594 L 0.222656 -17.96875 C 0.222656 -15.671875 0.175781 -14.039062 1.414062 -14.039062 Z M 1.414062 -14.039062 "/></g></g></g><g fill="#fee253" fill-opacity="1"><g transform="translate(40.608157, 47.673274)"><g><path d="M 0.222656 -0.839844 C 0.222656 0 0.972656 0.265625 1.808594 0.265625 C 2.824219 0.265625 3.179688 0 4.0625 0 C 4.945312 0 5.296875 0.265625 6.3125 0.265625 C 7.152344 0.265625 7.902344 0 7.902344 -0.839844 C 7.902344 -1.898438 6.492188 -1.808594 6.492188 -4.414062 C 6.492188 -5.785156 7.195312 -6.578125 8.210938 -6.578125 L 12.273438 -6.578125 C 13.289062 -6.578125 13.996094 -5.785156 13.996094 -4.414062 C 13.996094 -1.808594 12.890625 -2.121094 12.890625 -0.839844 C 12.890625 0.0429688 13.730469 0.265625 14.789062 0.265625 C 15.9375 0.265625 17.351562 0 18.234375 0 C 20.042969 0 21.632812 0.265625 22.78125 0.265625 C 23.796875 0.265625 24.414062 0.0429688 24.414062 -0.839844 C 24.414062 -1.722656 23.753906 -1.808594 22.78125 -3.046875 C 21.324219 -4.902344 17.703125 -18.191406 16.425781 -21.324219 C 16.027344 -22.296875 15.628906 -22.339844 14.96875 -22.339844 C 14.085938 -22.339844 13.332031 -22.074219 11.613281 -22.074219 C 10.066406 -22.074219 9.847656 -22.339844 8.742188 -22.339844 C 7.816406 -22.339844 6.933594 -22.207031 6.933594 -21.414062 C 6.933594 -20.222656 8.699219 -20.796875 7.816406 -18.144531 C 6.136719 -13.113281 3.796875 -5.253906 2.738281 -3.753906 C 1.324219 -1.765625 0.222656 -1.898438 0.222656 -0.839844 Z M 7.726562 -9.757812 C 8.519531 -12.007812 9.273438 -14.746094 9.847656 -16.378906 C 9.976562 -16.734375 10.109375 -16.910156 10.242188 -16.910156 C 10.375 -16.910156 10.507812 -16.734375 10.640625 -16.335938 C 11.125 -14.703125 11.832031 -12.007812 12.628906 -9.757812 C 12.847656 -9.140625 12.582031 -8.742188 11.964844 -8.742188 L 8.390625 -8.742188 C 7.769531 -8.742188 7.503906 -9.140625 7.726562 -9.757812 Z M 7.726562 -9.757812 "/></g></g></g><g fill="#fee253" fill-opacity="1"><g transform="translate(63.432224, 47.673274)"><g><path d="M 5.476562 0 C 6.800781 0 9.402344 0.265625 10.550781 0.265625 C 17.527344 0.265625 21.679688 -3.796875 21.679688 -11.039062 C 21.679688 -18.277344 17.527344 -22.339844 10.550781 -22.339844 C 9.402344 -22.339844 6.800781 -22.074219 5.476562 -22.074219 C 4.589844 -22.074219 3.265625 -22.339844 2.207031 -22.339844 C 1.191406 -22.339844 0.441406 -22.121094 0.441406 -21.238281 C 0.441406 -19.957031 1.941406 -20.53125 1.941406 -16.378906 L 1.941406 -5.695312 C 1.941406 -1.546875 0.441406 -2.121094 0.441406 -0.839844 C 0.441406 0.0429688 1.191406 0.265625 2.207031 0.265625 C 3.265625 0.265625 4.589844 0 5.476562 0 Z M 9.09375 -3.222656 L 9.09375 -18.632812 C 9.09375 -19.339844 9.535156 -19.601562 10.199219 -19.601562 C 13.464844 -19.601562 14.171875 -14.171875 14.171875 -11.039062 C 14.171875 -7.726562 13.554688 -2.25 10.199219 -2.25 C 9.535156 -2.25 9.09375 -2.515625 9.09375 -3.222656 Z M 9.09375 -3.222656 "/></g></g></g><g fill="#fee253" fill-opacity="1"><g transform="translate(84.184348, 47.673274)"><g/></g></g><g fill="#fee253" fill-opacity="1"><g transform="translate(53.268856, 22.246595)"><g><path d="M 0.359375 -0.425781 L 1.90625 -2.246094 L 1.5625 -2.535156 L 0.332031 -1.082031 L -0.644531 -1.910156 L 0.460938 -3.214844 L 0.121094 -3.5 L -0.984375 -2.199219 L -1.90625 -2.980469 L -0.710938 -4.386719 L -1.054688 -4.675781 L -2.558594 -2.90625 Z M 0.359375 -0.425781 "/></g></g></g><g fill="#fee253" fill-opacity="1"><g transform="translate(56.399855, 18.798302)"><g><path d="M 1.539062 -0.996094 C 2.226562 -1.476562 2.433594 -2.125 2.046875 -2.671875 C 1.722656 -3.132812 1.21875 -3.191406 0.28125 -2.828125 C -0.433594 -2.546875 -0.746094 -2.566406 -0.929688 -2.824219 C -1.140625 -3.125 -1.003906 -3.503906 -0.554688 -3.816406 C -0.09375 -4.140625 0.355469 -4.109375 0.628906 -3.738281 L 1.019531 -4.011719 C 0.585938 -4.621094 -0.117188 -4.6875 -0.820312 -4.191406 C -1.503906 -3.710938 -1.703125 -3.070312 -1.332031 -2.542969 C -0.992188 -2.058594 -0.457031 -2.03125 0.441406 -2.390625 C 1.097656 -2.652344 1.445312 -2.664062 1.652344 -2.371094 C 1.867188 -2.0625 1.71875 -1.683594 1.277344 -1.371094 C 0.789062 -1.027344 0.277344 -1.03125 -0.015625 -1.429688 L -0.40625 -1.152344 C 0.0273438 -0.542969 0.792969 -0.46875 1.539062 -0.996094 Z M 1.539062 -0.996094 "/></g></g></g><g fill="#fee253" fill-opacity="1"><g transform="translate(60.501025, 16.135516)"><g><path d="M 1.390625 -0.515625 L 1.84375 -0.683594 L 0.671875 -3.84375 L 1.882812 -4.292969 L 1.722656 -4.722656 L -1.15625 -3.65625 L -0.996094 -3.226562 L 0.21875 -3.675781 Z M 1.390625 -0.515625 "/></g></g></g><g fill="#fee253" fill-opacity="1"><g transform="translate(65.155148, 14.680424)"><g/></g></g><g fill="#fee253" fill-opacity="1"><g transform="translate(67.928255, 14.297914)"><g><path d="M 0.394531 0.0234375 L 3.054688 0.167969 L 3.078125 -0.277344 L 1.207031 -0.382812 L 2.363281 -1.328125 C 2.863281 -1.738281 3.105469 -2.152344 3.128906 -2.582031 C 3.167969 -3.253906 2.660156 -3.761719 1.925781 -3.800781 C 1.179688 -3.84375 0.648438 -3.375 0.582031 -2.609375 L 1.03125 -2.585938 C 1.078125 -3.113281 1.421875 -3.40625 1.910156 -3.378906 C 2.378906 -3.355469 2.691406 -3.046875 2.667969 -2.609375 C 2.648438 -2.292969 2.464844 -2.023438 2.078125 -1.703125 L 0.414062 -0.339844 Z M 0.394531 0.0234375 "/></g></g></g><g fill="#fee253" fill-opacity="1"><g transform="translate(72.756127, 14.72417)"><g><path d="M 1.792969 0.671875 C 2.703125 0.976562 3.5 0.441406 3.886719 -0.722656 C 4.273438 -1.886719 3.960938 -2.792969 3.050781 -3.097656 C 2.148438 -3.398438 1.339844 -2.863281 0.953125 -1.699219 C 0.566406 -0.539062 0.890625 0.371094 1.792969 0.671875 Z M 1.40625 -1.550781 C 1.703125 -2.445312 2.277344 -2.863281 2.902344 -2.65625 C 3.53125 -2.445312 3.734375 -1.765625 3.433594 -0.875 C 3.136719 0.0195312 2.570312 0.441406 1.941406 0.230469 C 1.3125 0.0234375 1.109375 -0.65625 1.40625 -1.550781 Z M 1.40625 -1.550781 "/></g></g></g><g fill="#fee253" fill-opacity="1"><g transform="translate(77.584785, 16.542507)"><g><path d="M 0.328125 0.21875 L 2.546875 1.695312 L 2.792969 1.324219 L 1.234375 0.28125 L 2.710938 0.0585938 C 3.351562 -0.0429688 3.769531 -0.277344 4.007812 -0.636719 C 4.382812 -1.195312 4.199219 -1.890625 3.589844 -2.296875 C 2.964844 -2.710938 2.269531 -2.578125 1.828125 -1.953125 L 2.199219 -1.703125 C 2.507812 -2.136719 2.953125 -2.214844 3.359375 -1.941406 C 3.75 -1.683594 3.863281 -1.257812 3.621094 -0.894531 C 3.445312 -0.628906 3.148438 -0.492188 2.65625 -0.414062 L 0.527344 -0.0820312 Z M 0.328125 0.21875 "/></g></g></g><g fill="#fee253" fill-opacity="1"><g transform="translate(81.527789, 19.361422)"><g><path d="M 1.203125 1.492188 C 1.832031 2.214844 2.792969 2.15625 3.714844 1.351562 C 4.640625 0.542969 4.828125 -0.398438 4.199219 -1.117188 C 3.574219 -1.835938 2.609375 -1.785156 1.683594 -0.980469 C 0.761719 -0.175781 0.578125 0.773438 1.203125 1.492188 Z M 1.996094 -0.621094 C 2.707031 -1.242188 3.414062 -1.3125 3.847656 -0.8125 C 4.285156 -0.3125 4.113281 0.371094 3.402344 0.992188 C 2.695312 1.609375 1.988281 1.683594 1.554688 1.183594 C 1.121094 0.6875 1.289062 -0.00390625 1.996094 -0.621094 Z M 1.996094 -0.621094 "/></g></g></g><g fill="#fee253" fill-opacity="1"><g transform="translate(14.43391, 74.134326)"><g><path d="M 0.664062 -6.933594 C 0.664062 -2.121094 5.652344 0.265625 10.816406 0.265625 C 15.984375 0.265625 20.398438 -1.234375 20.398438 -5.917969 C 20.398438 -8.34375 18.765625 -10.949219 15.984375 -10.949219 C 13.464844 -10.949219 13.070312 -9.183594 12.40625 -9.667969 C 11.832031 -10.066406 12.316406 -12.097656 14.394531 -12.097656 C 16.070312 -12.097656 17.085938 -11.433594 18.765625 -11.433594 C 20.398438 -11.433594 21.8125 -12.582031 21.8125 -14.347656 C 21.8125 -15.71875 20.882812 -16.867188 19.472656 -16.734375 C 18.191406 -16.601562 19.867188 -15.628906 18.632812 -14.394531 C 17.351562 -13.113281 15.320312 -13.464844 14.171875 -13.464844 C 12.714844 -13.464844 10.464844 -12.496094 10.464844 -10.15625 C 10.464844 -7.109375 13.023438 -6.84375 13.023438 -4.28125 C 13.023438 -2.914062 12.40625 -1.855469 10.773438 -1.855469 C 8.257812 -1.855469 7.859375 -5.121094 7.945312 -7.550781 C 8.167969 -13.863281 11.125 -13.070312 11.125 -13.554688 C 11.125 -13.773438 9.492188 -13.953125 9.625 -17.21875 C 9.667969 -18.5 10.199219 -20.355469 11.746094 -20.355469 C 12.714844 -20.355469 13.070312 -19.292969 12.847656 -18.234375 C 12.449219 -16.292969 11.523438 -16.777344 11.523438 -16.425781 C 11.523438 -15.144531 12.980469 -14.527344 14.261719 -14.527344 C 16.378906 -14.527344 17.660156 -16.160156 17.660156 -18.015625 C 17.660156 -21.058594 14.039062 -22.339844 10.859375 -22.339844 C 7.375 -22.339844 3.265625 -21.191406 3.265625 -17.351562 C 3.265625 -14.921875 5.476562 -12.980469 6.535156 -12.980469 C 3.753906 -12.980469 0.664062 -10.417969 0.664062 -6.933594 Z M 0.664062 -6.933594 "/></g></g></g><g fill="#fee253" fill-opacity="1"><g transform="translate(35.094748, 74.134326)"><g/></g></g><g fill="#fee253" fill-opacity="1"><g transform="translate(39.906625, 74.134326)"><g><path d="M 0.882812 -11.039062 C 0.882812 -4.679688 5.121094 0.265625 11.875 0.265625 C 23.3125 0.265625 24.195312 -9.09375 19.648438 -9.09375 C 15.628906 -9.09375 17.660156 -2.121094 12.847656 -2.121094 C 9.582031 -2.121094 8.390625 -6.445312 8.390625 -11.039062 C 8.390625 -15.628906 9.667969 -19.78125 12.757812 -19.78125 C 17.085938 -19.78125 17.527344 -14.613281 20.089844 -14.613281 C 22.164062 -14.613281 20.664062 -17.925781 19.207031 -21.679688 C 18.984375 -22.207031 18.632812 -22.339844 18.144531 -22.339844 C 17.441406 -22.339844 16.558594 -22.074219 15.542969 -22.074219 C 14.214844 -22.074219 13.597656 -22.339844 11.875 -22.339844 C 5.386719 -22.339844 0.882812 -17.394531 0.882812 -11.039062 Z M 0.882812 -11.039062 "/></g></g></g><g fill="#fee253" fill-opacity="1"><g transform="translate(60.744055, 74.134326)"><g><path d="M 11.921875 0.53125 C 18.101562 0.53125 22.914062 -4.238281 22.914062 -11.039062 C 22.914062 -17.835938 18.101562 -22.605469 11.921875 -22.605469 C 5.738281 -22.605469 0.882812 -17.835938 0.882812 -11.039062 C 0.882812 -4.238281 5.738281 0.53125 11.921875 0.53125 Z M 8.390625 -11.039062 C 8.390625 -16.425781 9.183594 -20.308594 11.921875 -20.308594 C 14.660156 -20.308594 15.363281 -16.425781 15.363281 -11.039062 C 15.363281 -5.652344 14.660156 -1.765625 11.921875 -1.765625 C 9.183594 -1.765625 8.390625 -5.652344 8.390625 -11.039062 Z M 8.390625 -11.039062 "/></g></g></g></svg>